<svg width="1110" height="315" viewBox="0 0 1110 315" fill="none" xmlns="http://www.w3.org/2000/svg">
<path fill-rule="evenodd" clip-rule="evenodd" d="M89.5231 2.49532C74.9187 4.60918 52.1058 11.0589 43.2058 15.5925C33.7102 20.4275 16.284 36.7012 12.1283 44.6184C1.25444 65.3222 1.12362 66.8771 0.235958 185.317C-0.22656 247.268 0.0116993 300.383 0.768548 303.353C3.4292 313.791 24.92 318.463 40.5966 312.013L48.6976 308.68L48.7116 266.585C48.7187 243.431 49.8096 220.639 51.1364 215.935C59.1464 187.539 89.7684 178.169 181.847 175.935C238.286 174.567 247.254 173.025 247.254 164.687C247.254 154.649 242.086 153.276 198.425 151.707C149.877 149.962 136.87 146.849 123.626 133.807C112.455 122.808 108.447 107.995 109.909 83.1278C111.156 61.9064 115.73 52.8116 130.185 42.8081C139.828 36.1353 141.136 35.8777 165.112 35.9352C189.128 35.995 190.649 36.3032 207.477 44.5608C229.234 55.2382 242.22 56.0801 249.26 47.2659C253.129 42.4217 253.526 40.2342 251.545 34.6379C243.843 12.8852 199.887 -0.0325614 135.406 0.510279C116.625 0.66669 95.975 1.56145 89.5231 2.49532ZM279.632 4.61839L274.117 9.01401L273.456 120.202C272.622 260.335 273.741 268.545 296.437 288.735C317.559 307.526 343.259 313.856 399.091 314.019C457.291 314.189 494.802 305.57 513.959 287.629C524.041 278.185 525.16 272.073 517.979 265.674C510.051 258.608 493.991 259.857 475.792 268.952C443.794 284.942 387.411 283.362 377.415 266.191C375.598 263.068 374.14 246.212 373.395 219.71C372.019 170.737 371.732 170.049 343.476 148.257C334.039 140.979 324.821 132.174 322.992 128.692C320.383 123.719 319.668 110.235 319.668 65.8926C319.668 12.4896 319.414 9.17272 314.996 4.8231C308.563 -1.51157 287.476 -1.63347 279.632 4.61839ZM548.776 4.24806L543.772 8.27335L544.431 141.683L545.088 275.093L550.888 282.707C558.629 292.871 584.418 304.959 609.326 310.099C637.505 315.912 716.61 315.848 744.538 309.989C778.445 302.877 796.048 291.592 800.895 273.863C802.528 267.894 803.143 223.592 802.706 143.346C801.954 5.74088 803.014 13.1497 782.834 4.35846C773.864 0.452767 768.444 -0.138363 748.332 0.595391C726.661 1.38435 723.704 2.03989 716.124 7.73281C704.465 16.4896 702.096 28.7587 703.138 74.9783C704.15 119.928 705.182 122.463 730.684 142.603C755.65 162.318 757.365 166.196 758.419 205.329C759.481 244.77 756.26 257.957 742.59 270.116C728.677 282.495 712.599 286.373 674.733 286.488C626.865 286.635 602.382 277.791 592.732 256.873C588.7 248.128 588.401 239.33 588.354 127.438L588.303 7.38319L583.11 3.80412C575.854 -1.20105 555.219 -0.934228 548.776 4.24806ZM849.605 4.61609C844.246 8.88291 844.069 10.1457 843.358 49.2555C842.933 72.5539 843.655 93.2739 845.073 98.4515C848.315 110.311 856.122 117.032 881.958 130.203C924.629 151.958 923.998 157.485 876.316 179.641C863.205 185.734 849.803 193.352 846.533 196.572L840.586 202.428V247.277C840.586 277.2 841.515 294.139 843.382 298.171C847.453 306.969 861.847 313.248 881.187 314.663C901.433 316.144 915.292 312.775 925.355 303.923L932.856 297.327L934.024 255.91C935.143 216.25 935.428 214.244 940.742 208.683C961.509 186.951 1044.05 189.582 1058.73 212.443C1061.18 216.259 1062.29 229.058 1063.02 261.957C1064.2 314.311 1064.15 314.196 1085.7 314.196C1095.99 314.196 1100.63 313.083 1104.42 309.706C1109.34 305.324 1109.44 303.981 1108.76 253.748L1108.05 202.277L1099.88 194.907C1095.38 190.854 1081.19 183.038 1068.34 177.538C1041.11 165.883 1036.81 162.718 1036.81 154.334C1036.81 146.111 1040.6 143.176 1069.51 129.041C1107.18 110.624 1104.55 115.56 1104.55 63.252C1104.55 19.0842 1104.53 18.96 1098.56 11.9674C1091.06 3.18998 1080.47 0.238858 1056.66 0.287162C1036.07 0.328565 1020.43 5.47404 1015.97 13.6765C1014.49 16.3999 1013.45 32.2848 1013.45 52.0525C1013.45 90.0237 1011.18 98.2307 998.599 105.743C971.044 122.201 904.845 116.211 894.016 96.2825C892.479 93.4533 891.222 74.8426 890.902 50.1042C890.381 10.1342 890.176 8.51027 885.072 4.44127C877.681 -1.44947 857.094 -1.35055 849.605 4.61609Z" fill="#005B96"/>
</svg>
